Coordinates
version=1
nRows=5
nColumns=107
inDegrees=yes

Units are S.I. units (second, meters, Newtons, ...)
If the header above contains a line with 'inDegrees', this indicates whether rotational values are in degrees (yes) or radians (no).

endheader
time	sternoclavicular_r2	sternoclavicular_r3	unrotscap_r3	unrotscap_r2	acromioclavicular_r2	acromioclavicular_r3	acromioclavicular_r1	unrothum_r1	unrothum_r3	unrothum_r2	elv_angle	shoulder_elv	shoulder1_r2	shoulder_rot	elbow_flexion	pro_sup	deviation	flexion	proximal_distal_r1	proximal_distal_r3	cmc_flexion	cmc_abduction	mp_flexion	ip_flexion	mcp2_flexion	mcp2_abduction	pm2_flexion	md2_flexion	mcp3_flexion	mcp3_abduction	pm3_flexion	md3_flexion	mcp4_flexion	mcp4_abduction	pm4_flexion	md4_flexion	mcp5_flexion	mcp5_abduction	pm5_flexion	md5_flexion	bicpt_tx	bicpt_ty	bicpt_tz	bicpt2_tx	bicpt2_ty	bicpt2_tz	ptpt_tx	ptpt_ty	ptpt_tz	FCUpt_tx	FCUpt_ty	FCUpt_tz	EDCpt_tx	EDCpt_ty	EDCpt_tz	APLpt_tx	APLpt_ty	APLpt_tz	FPLpt_tx	FPLpt_ty	FPLpt_tz	FPLpt2_tx	FPLpt2_ty	FPLpt2_tz	PEC1pt2_tx	PEC1pt2_ty	PEC1pt2_tz	PEC1pt3_tx	PEC1pt3_ty	PEC1pt3_tz	PEC2pt2_tx	PEC2pt2_ty	PEC2pt2_tz	PEC2pt3_tx	PEC2pt3_ty	PEC2pt3_tz	PEC3pt2_tx	PEC3pt2_ty	PEC3pt2_tz	PEC3pt3_tx	PEC3pt3_ty	PEC3pt3_tz	DELT2pt2a_tx	DELT2pt2a_ty	DELT2pt2a_tz	DELT2pt2_tx	DELT2pt2_ty	DELT2pt2_tz	LAT1pt2_tx	LAT1pt2_ty	LAT1pt2_tz	LAT1pt3_tx	LAT1pt3_ty	LAT1pt3_tz	LAT2pt2_tx	LAT2pt2_ty	LAT2pt2_tz	LAT2pt3_tx	LAT2pt3_ty	LAT2pt3_tz	LAT3pt2_tx	LAT3pt2_ty	LAT3pt2_tz	LAT3pt3_tx	LAT3pt3_ty	LAT3pt3_tz
      1.60000000	     -0.31657991	      0.13408831	     -0.13408831	      0.31657991	     -0.06410099	      0.51804166	      0.23285616	     -0.23285616	     -0.51804166	      0.06410099	    100.72175737	     74.95310659	     -1.75792629	    -31.16160697	     31.24711258	     70.56837967	      0.27561186	     -0.52089251	      0.31186926	     -0.26044626	     26.13478369	    -23.64356009	     -5.77448256	      0.59653559	     33.03041408	      5.87441421	     24.77038271	     15.33917974	     31.69657909	      1.50682073	     21.43287409	     21.26556429	     18.54940851	     -5.44119463	     38.47113790	     28.96646808	     15.02851354	    -12.80332509	     39.12707186	      5.24438493	      0.00093356	     -0.03118140	     -0.00487687	      0.01556266	     -0.01868843	     -0.00355174	      0.00233579	     -0.06827159	     -0.00573466	      0.01100202	     -0.18272650	     -0.00025157	     -0.00846819	      0.00276793	     -0.00032624	      0.00030572	      0.00012229	      0.00061144	      0.00039132	      0.00117397	      0.00066036	     -0.00000206	     -0.00027391	     -0.00032870	      0.00245680	      0.00861961	      0.00599625	     -0.00803665	      0.01940454	     -0.01840517	      0.00245680	      0.00861961	      0.00599625	      0.00054133	      0.01798876	     -0.00945243	      0.00390172	      0.00479326	      0.01585354	      0.00000000	      0.00751162	      0.00000000	     -0.00703727	     -0.03252135	     -0.00619213	      0.01938393	     -0.00079693	     -0.00807253	     -0.00087445	      0.01465751	     -0.00599625	      0.00241516	      0.02115345	     -0.01748907	     -0.00587133	      0.01270040	     -0.00537164	     -0.01224235	      0.02681658	     -0.03002291	     -0.02298564	      0.01419946	     -0.00720383	     -0.01524048	      0.03098064	     -0.03751823
      1.63333333	     -0.31790648	      0.13465018	     -0.13465018	      0.31790648	     -0.06436960	      0.52021243	      0.23383191	     -0.23383191	     -0.52021243	      0.06436960	    100.42763015	     75.26718544	     -1.75279281	    -29.59554235	     30.99150421	     67.97657629	      0.26303203	     -0.55043164	      0.30034322	     -0.27521582	     25.18271975	    -23.57811700	     -6.03915248	      0.56281829	     29.83155874	      4.70732911	     22.16909474	     12.26077264	     27.45464031	      1.08660998	     18.54767649	     19.74958017	     14.19077102	     -4.90619730	     34.78445030	     27.63512053	      9.27767127	    -12.32249786	     36.94245556	      5.24677019	      0.00092510	     -0.03115210	     -0.00487215	      0.01573138	     -0.01861899	     -0.00393478	      0.00252730	     -0.06814776	     -0.00552588	      0.01071767	     -0.18280196	     -0.00029031	     -0.00815717	      0.00263908	     -0.00026652	      0.00030944	      0.00012378	      0.00061888	      0.00039609	      0.00118826	      0.00066839	     -0.00000014	     -0.00027725	     -0.00033270	      0.00246709	      0.00865573	      0.00602138	     -0.00807032	      0.01948585	     -0.01848229	      0.00246709	      0.00865573	      0.00602138	      0.00054360	      0.01806414	     -0.00949204	      0.00391373	      0.00481334	      0.01588340	      0.00000000	      0.00757512	      0.00000000	     -0.00706676	     -0.03265762	     -0.00624487	      0.01869763	     -0.00074331	     -0.00730288	     -0.00087812	      0.01471893	     -0.00602138	      0.00242528	      0.02124209	     -0.01756236	     -0.00589593	      0.01275362	     -0.00539415	     -0.01229365	      0.02692895	     -0.03014871	     -0.02308196	      0.01425896	     -0.00723402	     -0.01530434	      0.03111046	     -0.03767544
      1.66666667	     -0.32085611	      0.13589950	     -0.13589950	      0.32085611	     -0.06496684	      0.52503911	      0.23600147	     -0.23600147	     -0.52503911	      0.06496684	     99.79422701	     75.96553585	     -1.74173784	    -26.15652669	     30.44927348	     63.19799913	      0.24870383	     -0.61538601	      0.28689853	     -0.30769300	     23.59038302	    -23.46152657	     -5.56832135	      0.65382809	     27.80277515	      3.42741288	     21.16678558	      4.64913017	     24.18950240	      0.40165293	     16.91612895	     17.99628969	     10.54321426	     -4.73032401	     32.33047664	     27.04159510	      4.16996389	    -12.06848452	     36.57458343	      5.19365240	      0.00090717	     -0.03108995	     -0.00486214	      0.01600223	     -0.01847169	     -0.00461638	      0.00288038	     -0.06791945	     -0.00514094	      0.01019882	     -0.18293609	     -0.00034848	     -0.00758374	      0.00240695	     -0.00016593	      0.00031249	      0.00012500	      0.00062498	      0.00039999	      0.00119996	      0.00067498	      0.00000331	     -0.00028059	     -0.00033671	      0.00248998	      0.00873604	      0.00607725	     -0.00814520	      0.01966665	     -0.01865378	      0.00248998	      0.00873604	      0.00607725	      0.00054864	      0.01823174	     -0.00958011	      0.00394031	      0.00485800	      0.01594895	      0.00000000	      0.00771732	      0.00000000	     -0.00713233	     -0.03296063	     -0.00636293	      0.01707575	     -0.00062812	     -0.00572026	     -0.00088627	      0.01485550	     -0.00607725	      0.00244778	      0.02143918	     -0.01772531	     -0.00595064	      0.01287195	     -0.00544420	     -0.01240771	      0.02717880	     -0.03042844	     -0.02329612	      0.01439126	     -0.00730114	     -0.01544634	      0.03139911	     -0.03802500
      1.70000000	     -0.32152683	      0.13618359	     -0.13618359	      0.32152683	     -0.06510264	      0.52613666	      0.23649481	     -0.23649481	     -0.52613666	      0.06510264	     99.68863469	     76.12433476	     -1.73989490	    -25.44144216	     30.34977930	     62.23741033	      0.24750513	     -0.63181268	      0.28575894	     -0.31590634	     23.68048816	    -23.42264180	     -6.43881361	      0.16529220	     25.63945239	      3.27397566	     20.07690646	      3.50444193	     22.09319555	      0.54916936	     15.09679144	     17.26684445	      8.86812327	     -3.95969750	     29.85934487	     25.97908966	      1.66806805	    -11.36279100	     34.98070119	      5.13281670	      0.00090388	     -0.03107855	     -0.00486030	      0.01605031	     -0.01844467	     -0.00474948	      0.00295136	     -0.06787356	     -0.00506356	      0.01009538	     -0.18296227	     -0.00035808	     -0.00746847	      0.00236115	     -0.00014722	      0.00031213	      0.00012485	      0.00062427	      0.00039953	      0.00119859	      0.00067421	      0.00000311	     -0.00028048	     -0.00033658	      0.00249519	      0.00875431	      0.00608995	     -0.00816223	      0.01970776	     -0.01869277	      0.00249519	      0.00875431	      0.00608995	      0.00054979	      0.01826986	     -0.00960013	      0.00394633	      0.00486816	      0.01596369	      0.00000000	      0.00774984	      0.00000000	     -0.00714724	     -0.03302953	     -0.00638993	      0.01671828	     -0.00060465	     -0.00541119	     -0.00088812	      0.01488655	     -0.00608995	      0.00245290	      0.02148400	     -0.01776236	     -0.00596308	      0.01289886	     -0.00545558	     -0.01243365	      0.02723562	     -0.03049205	     -0.02334482	      0.01442134	     -0.00731640	     -0.01547863	      0.03146475	     -0.03810449
      1.73333333	     -0.32230395	      0.13651274	     -0.13651274	      0.32230395	     -0.06525999	      0.52740832	      0.23706641	     -0.23706641	     -0.52740832	      0.06525999	     99.44652545	     76.30832576	     -1.73566930	    -24.43976691	     30.41950116	     60.86700190	      0.24280434	     -0.65349953	      0.28126576	     -0.32674977	     23.40395150	    -23.41674488	     -7.01608900	     -0.19715085	     24.06680216	      2.98760204	     19.13502937	      2.06123870	     20.65956342	      0.49932168	     13.75458655	     16.54919609	      7.80731219	     -3.59759181	     27.72270820	     25.07771833	     -0.02186740	    -10.82800344	     33.60037666	      5.13081225	      0.00090618	     -0.03108654	     -0.00486159	      0.01611533	     -0.01846361	     -0.00493719	      0.00305262	     -0.06780808	     -0.00495316	      0.00994830	     -0.18299916	     -0.00037060	     -0.00730402	      0.00229628	     -0.00012138	      0.00031098	      0.00012439	      0.00062196	      0.00039805	      0.00119416	      0.00067171	      0.00000373	     -0.00028080	     -0.00033696	      0.00250122	      0.00877546	      0.00610467	     -0.00818196	      0.01975539	     -0.01873795	      0.00250122	      0.00877546	      0.00610467	      0.00055112	      0.01831401	     -0.00962334	      0.00395329	      0.00487992	      0.01598070	      0.00000000	      0.00778762	      0.00000000	     -0.00716451	     -0.03310936	     -0.00642129	      0.01620643	     -0.00057205	     -0.00498978	     -0.00089026	      0.01492253	     -0.00610467	      0.00245883	      0.02153592	     -0.01780529	     -0.00597749	      0.01293003	     -0.00546877	     -0.01246370	      0.02730145	     -0.03056575	     -0.02340124	      0.01445620	     -0.00733408	     -0.01551604	      0.03154080	     -0.03819659
